<svg xmlns="http://www.w3.org/2000/svg" viewBox="0 0 500 500"><defs><style>.cls-1{fill:#fff;}.cls-2,.cls-4{fill:#2f2c33;}.cls-3,.cls-7{fill:#f7941d;}.cls-4{font-size:42.74px;font-family:Rubik-Bold, Rubik Bold;}.cls-4,.cls-7{font-weight:700;}.cls-5{letter-spacing:-0.02em;}.cls-6{letter-spacing:0.03em;}.cls-7{font-size:13.8px;font-family:LeagueSpartan-Bold, LeagueSpartan Bold;letter-spacing:0.16em;}.cls-8{letter-spacing:0.2em;}.cls-9{letter-spacing:0.16em;}.cls-10{letter-spacing:0.13em;}.cls-11{letter-spacing:0.19em;}.cls-12{letter-spacing:0.2em;}</style></defs><title>logo</title><g id="BACKGROUND"><rect class="cls-1" width="500" height="500"/></g><g id="OBJECTS"><path class="cls-2" d="M173,242.13a77,77,0,0,1,102.44-72.66,75.76,75.76,0,0,0-98.11,98.11A76.88,76.88,0,0,1,173,242.13Z"/><polygon class="cls-2" points="311.21 277.95 258.35 237.11 205.49 277.95 212.74 277.95 258.35 242.71 303.96 277.95 311.21 277.95"/><path class="cls-2" d="M251.48,262.66h6.23v-6.23A6.93,6.93,0,0,0,251.48,262.66Z"/><path class="cls-2" d="M257.71,270.16v-6.22h-6.23A6.91,6.91,0,0,0,257.71,270.16Z"/><path class="cls-2" d="M259,270.16a6.89,6.89,0,0,0,6.23-6.22H259Z"/><path class="cls-2" d="M259,256.43v6.23h6.23A6.91,6.91,0,0,0,259,256.43Z"/><path class="cls-2" d="M318.58,225.46a72.34,72.34,0,0,0-33.5-47.22l-4.55,5.38-3.07-1.31,4.81-5.68c-.38-.21-.77-.39-1.15-.59l-4.86,5.75-5.43-2.32,2.65-2.57a1.17,1.17,0,0,0,1.4,0A5.44,5.44,0,0,0,276,176l1.73-1.63c-.72-.33-1.43-.65-2.16-1l-1.27,1.19a1.78,1.78,0,0,0-1.63-.11,1.36,1.36,0,0,1,1.32,1.07l-3.77,3.63-.44-.18a1.65,1.65,0,0,0-.45-1l3-2.6-.14-.4a.7.7,0,0,1,.25-.63c.6-.6.83-.81.83-.81l.47-.42-.23-.26.23-.21-1.3-.5-.05,0a.88.88,0,0,0-.26.71c-.14.13-.32.32-.57.57a2,2,0,0,0-.62,1.46l-3.17,2.76c-1.14.35-.82,1.8-.82,1.8h0a2.26,2.26,0,0,0-.31.49,2.16,2.16,0,0,0,0,1.58l-4.13-1.77a2.22,2.22,0,0,0-2.82.91,2.14,2.14,0,0,0,1,3l1,.41v1.64l-2.09,9.56h-.94a2.21,2.21,0,0,0-2.21,1.86,2.14,2.14,0,0,0,1.86,2.42l.31,2.28h-7.36c-8.61,5-5.28,17.5-2.92,20s12.08,13.19,12.08,13.19h3.22l-1-2.7h3l1.28,2.7h3.47l-1.07-2.7h2.83l1.25,2.7H276l-1.27-2.7h2.61l1.85,2.7h4.13l-2.89-6.9,1.23-23.93L279,201.92h-3l.73-3.65.06-.06,13.7-11.61L309.17,206a28.46,28.46,0,0,1,4.75,6.64V226h-1.39v22l-3.44,6.14,3.71,17.42a71.42,71.42,0,0,0,4.89-13.15h-.86V247.78l2.64-4.48v5.91A71.91,71.91,0,0,0,320,242h-3.19V226.29H316v-8.53Zm-54.49-23.54h-2.87l0-2.25h3.05Zm1.22-6.56H263l.22-2.22,1.46-3.85h1.09l.11,3.28Zm4-7.94,1.64.7-1.72,2Zm2.86,6.14a3.25,3.25,0,0,0-.77,1.88,1.84,1.84,0,0,0-.53-.08h-2l.32-3.18,3-3.56a2.14,2.14,0,0,0,2.69-1.17,2.09,2.09,0,0,0,0-1.57l2.77,1.18Z"/><path class="cls-3" d="M127.7,253l16.75,1.42a7,7,0,0,1,6.32,5.53l.35,1.57a98.06,98.06,0,0,0,13.17,31.75l.86,1.36a7.07,7.07,0,0,1-.56,8.39l-2.72,3.22c13.43-1.15,27.35-2,41.65-2.65a77.59,77.59,0,1,1,89-.17q21.15.84,41.12,2.45l-2.41-2.85a7.05,7.05,0,0,1-.56-8.39l.86-1.35a98.18,98.18,0,0,0,13.16-31.76l.35-1.57a7.06,7.06,0,0,1,6.33-5.53L368.15,253a7.21,7.21,0,0,0,6.57-7.14V234.22a7.14,7.14,0,0,0-6.57-7.14l-16.74-1.41a7.08,7.08,0,0,1-6.33-5.54l-.35-1.56a98.09,98.09,0,0,0-13.16-31.76l-.86-1.35a7.05,7.05,0,0,1,.56-8.39l10.85-12.85a7.21,7.21,0,0,0-.41-9.69l-8.26-8.25a7.13,7.13,0,0,0-9.69-.41l-12.85,10.85a7.07,7.07,0,0,1-8.39.56l-1.35-.86a98.22,98.22,0,0,0-31.75-13.17l-1.56-.35a7,7,0,0,1-5.54-6.32l-1.41-16.75a7.13,7.13,0,0,0-7.15-6.56H242.09a7.21,7.21,0,0,0-7.14,6.56l-1.41,16.75A7.06,7.06,0,0,1,228,142.9l-1.56.35a98.37,98.37,0,0,0-31.76,13.17l-1.35.86a7.07,7.07,0,0,1-8.39-.56l-12.85-10.85a7.13,7.13,0,0,0-9.69.41l-8.25,8.25a7.21,7.21,0,0,0-.41,9.69l10.85,12.85a7.07,7.07,0,0,1,.56,8.39l-.86,1.35a98.11,98.11,0,0,0-13.17,31.76l-.35,1.56a7.06,7.06,0,0,1-6.32,5.54l-16.75,1.41a7.21,7.21,0,0,0-6.56,7.14v11.67A7.2,7.2,0,0,0,127.7,253Z"/><path class="cls-2" d="M225.39,302.91V289.44h14.5v13.24q4.38,0,8.79-.05V284.76H268v18c2.95.05,5.88.1,8.8.17V289.44h14.5v8.22a73.66,73.66,0,0,0,7.5-6.51v-15l-40.46-31.25-40.46,31.25v27C220.38,303,222.88,303,225.39,302.91Zm33-47.78a8.17,8.17,0,1,1-8.17,8.17A8.18,8.18,0,0,1,258.35,255.13Z"/><path class="cls-2" d="M183.69,268.49h3v5.09h-2.64a72.67,72.67,0,0,0,29.12,29.67l2-.07V279.51l-1.5,1.16H201.52a1.36,1.36,0,0,1-.83-2.44l22.16-17.13v-3.71h4.2v.47l18.74-14.48h-8.48V183H204.56v34.21H179.82V263.8a71.38,71.38,0,0,0,3.87,9Zm24.47,12.19h4.2v5.09h-4.2Zm0,11.64h4.2v5.1h-4.2Zm22-104.8h4.2v5.1h-4.2Zm0,34.94h4.2v5.09h-4.2Zm0,11.64h4.2v5.09h-4.2Zm0,11.64h4.2v5.1h-4.2Zm-7.35-58.22h4.2v5.1h-4.2Zm0,11.65h4.2v5.09h-4.2Zm0,11.64h4.2v5.1h-4.2Zm0,23.29h4.2v5.09h-4.2Zm-7.34-23.29h4.19v5.1h-4.19Zm0,11.65h4.19v5.09h-4.19Zm0,23.28h4.19v5.1h-4.19Zm0,11.65h4.19v5.09h-4.19Zm-7.35-69.87h4.2v5.1h-4.2Zm0,11.65h4.2v5.09h-4.2Zm0,11.64h4.2v5.1h-4.2Zm0,23.29h4.2v5.09h-4.2Zm0,11.64h4.2v5.1h-4.2Zm-8.54-22h3v5.09h-3Zm0,11.19h3V240h-3Zm0,11.19h3v5.09h-3Zm-5.31-11.19h3V240h-3Zm0,22.38h3v5.09h-3Zm0,11.19h3v5.09h-3ZM189,223.73h3v5.09h-3Zm0,22.38h3v5.09h-3Zm0,22.38h3v5.09h-3Zm-5.31-44.76h3v5.09h-3Zm0,11.19h3V240h-3Zm0,22.38h3v5.09h-3Z"/><path class="cls-2" d="M441.59,327.69C392.72,315.51,324.93,308,250,308s-142.72,7.55-191.59,19.73c48.87-4.84,116.66-7.84,191.59-7.84S392.72,322.85,441.59,327.69Z"/><text class="cls-4" transform="translate(79.58 364.39)"><tspan class="cls-5">C</tspan><tspan x="23.89" y="0">ONSTRU</tspan><tspan class="cls-6" x="174.41" y="0">C</tspan><tspan x="200.4" y="0">TION</tspan></text><text class="cls-7" transform="translate(153.27 383.7)">Y<tspan class="cls-8" x="9.73" y="0">OUR</tspan><tspan class="cls-9" x="43.87" y="0"> </tspan><tspan class="cls-10" x="48.99" y="0">T</tspan><tspan class="cls-11" x="57.58" y="0">A</tspan><tspan class="cls-12" x="68.57" y="0">GLINE HERE</tspan></text></g></svg>